<svg width="698" height="561" viewBox="0 0 698 561" fill="none" xmlns="http://www.w3.org/2000/svg">
<g clip-path="url(#clip0_2:726)">
<path d="M244.22 188.16C249.22 181.62 261.13 167.62 268.38 164H269.86L274.39 162.49C275.9 160.98 279.23 157.96 280.39 157.96C281.9 157.96 300.03 179.1 303.05 183.63C306.07 188.16 304.56 189.63 304.56 192.69C304.56 195.11 302.56 194.69 301.56 194.2L295.56 236.49L300.09 251.59L365.02 224.4L372.57 239.51C354.96 248.57 317.57 267.9 309.15 272.73C300.73 277.56 293.54 278.73 291.03 278.73L289.51 290.81H224.58C214.91 290.81 209.48 287.81 207.97 286.28C207.016 260.409 213.29 234.783 226.09 212.28C230.93 203.87 240.19 192.69 244.22 188.16Z" fill="white"/>
<path d="M288.41 204.77C289.61 213.16 299.72 252.37 299.72 252.37L389.03 214.37L398.62 226.37C398.62 226.37 339.92 258.71 303.98 275.48C268.04 292.25 262.05 249.14 254.87 201.24" stroke="black" stroke-width="1.56" stroke-miterlimit="10"/>
<path d="M305.18 185.63L304.18 194.4C304.15 194.6 304.071 194.789 303.95 194.95C303.829 195.113 303.667 195.241 303.48 195.32C303.294 195.411 303.084 195.443 302.88 195.41C302.677 195.386 302.484 195.311 302.32 195.19L301.79 194.79L302.04 191.44C302.256 188.601 301.696 185.758 300.421 183.213C299.146 180.667 297.203 178.517 294.8 176.99L275.2 164.53C274.487 164.092 273.716 163.755 272.91 163.53L277.35 158.63C277.677 158.274 278.076 157.991 278.52 157.8C278.968 157.609 279.453 157.52 279.94 157.54C280.422 157.552 280.897 157.668 281.33 157.88C281.765 158.094 282.148 158.401 282.45 158.78L305.18 185.63Z" stroke="black" stroke-width="1.56" stroke-miterlimit="10"/>
<path d="M272.95 163.46C273.756 163.685 274.527 164.022 275.24 164.46L294.86 176.94C297.263 178.467 299.206 180.617 300.481 183.162C301.756 185.708 302.316 188.551 302.1 191.39L301.85 194.74" stroke="black" stroke-width="1.56" stroke-miterlimit="10"/>
<path d="M301.86 194.77L296.3 238.03" stroke="black" stroke-width="1.56" stroke-miterlimit="10"/>
<path d="M208.24 287.99C202.99 226.86 246.42 181.82 264.91 165.31C265.981 164.335 267.281 163.647 268.69 163.31C270.096 162.981 271.563 163.019 272.95 163.42" stroke="black" stroke-width="1.56" stroke-miterlimit="10"/>
<path d="M325.86 127.49C326.1 118.77 316.79 104.49 297.54 109.75C278.29 115.01 270.6 131.4 274.19 140.06C277.78 148.72 285.79 153.13 293.84 148.46C293.84 148.46 289.34 139.82 295.72 135.54C302.1 131.26 302.99 140.35 301.95 143.78C300.91 147.21 307.6 141.78 310.54 136.44C312.148 136.459 313.743 136.154 315.23 135.544C316.718 134.934 318.068 134.032 319.2 132.89C321.149 130.779 323.392 128.96 325.86 127.49Z" fill="black"/>
<path d="M295.73 109.07C296.604 108.541 297.294 107.757 297.709 106.824C298.124 105.891 298.242 104.853 298.05 103.85C296.49 95.7299 287.6 83.7499 273.42 89.2299C256.82 95.6299 264.64 110.66 272.22 110.53C276.96 110.597 281.493 112.484 284.88 115.8L295.73 109.07Z" fill="black"/>
<path d="M297.58 157.5C297.58 157.5 312.2 170.9 315.27 169.13C318.34 167.36 322.42 154.71 322.42 154.71C324.092 154.942 325.795 154.826 327.42 154.37C328.98 153.57 324.67 147.2 324.96 142.28C325.25 137.36 326.67 130.89 325.12 127.88" stroke="black" stroke-width="1.56" stroke-miterlimit="10"/>
<path d="M281.22 158.06C284.437 155.063 287.333 151.738 289.86 148.14" stroke="black" stroke-width="1.56" stroke-miterlimit="10"/>
<path d="M306.26 164.72C306.26 164.72 297.86 174.53 297.93 178.33" stroke="black" stroke-width="1.56" stroke-miterlimit="10"/>
<path d="M325.16 127.88C324.33 131.63 317.76 139.36 311.69 138.7" stroke="black" stroke-width="1.56" stroke-miterlimit="10"/>
<path d="M286.34 117.51C284.41 115.64 278.71 111.28 273.77 112.29C268.83 113.3 267.67 110.98 267.67 110.98" stroke="black" stroke-width="1.56" stroke-miterlimit="10"/>
<path d="M364.99 224.59L373.1 240.16" stroke="black" stroke-width="1.56" stroke-miterlimit="10"/>
<path d="M390.23 215.56C390.23 215.56 392.84 209.24 394.42 207.87C395.42 206.98 398.32 207.99 400.24 208.87C400.417 208.942 400.57 209.064 400.68 209.22C400.791 209.379 400.857 209.566 400.87 209.76C400.889 209.956 400.854 210.153 400.767 210.33C400.68 210.506 400.546 210.655 400.38 210.76L397.38 212.69C397.38 212.69 397.3 215.81 399.56 215.93C401.12 215.93 410.88 211.14 416.16 208.41C416.28 208.37 416.41 208.37 416.53 208.41C416.653 208.45 416.762 208.526 416.84 208.63C416.908 208.737 416.94 208.864 416.93 208.99C416.921 209.12 416.868 209.244 416.78 209.34C411.55 214.23 405.78 221.34 397.41 225.23" stroke="black" stroke-width="1.56" stroke-miterlimit="10"/>
<path d="M397.39 212.62L426.89 198.68C427.03 198.622 427.179 198.588 427.33 198.58C427.478 198.581 427.624 198.611 427.76 198.67C427.895 198.728 428.018 198.813 428.12 198.92C428.221 199.029 428.296 199.159 428.34 199.3L428.81 200.72C428.92 201.01 428.92 201.33 428.81 201.62C428.693 201.91 428.472 202.145 428.19 202.28L399.19 216.17L397.39 212.62Z" fill="black"/>
<path d="M254.28 202.09C254.28 202.09 249.16 286.92 289.61 286.62L290.39 279.13C290.39 279.13 276.87 280.13 269.63 265.66C262.39 251.19 254.28 202.09 254.28 202.09Z" fill="black"/>
<path d="M288.94 204.7L297.27 229.91L296.27 237.56L290.99 217.04L288.94 204.7Z" fill="black"/>
<path d="M284.61 154.71L297.91 176.43L281.45 157.85L284.61 154.71Z" fill="black"/>
<path d="M264.1 559.52C264.413 522.268 279.432 486.648 305.884 460.417C332.337 434.186 368.082 419.469 405.335 419.469C442.588 419.469 478.333 434.186 504.786 460.417C531.238 486.648 546.257 522.268 546.57 559.52H264.1Z" fill="#D0D1D0"/>
<path d="M297.76 288.31L388.16 550.31H371.48L234.36 299.64L297.76 288.31Z" fill="black"/>
<path d="M697.96 559H-0.0397949" stroke="black" stroke-width="1.18" stroke-miterlimit="10"/>
<path d="M375.32 558.76L372.01 550.33H388.76C395.46 550.33 399.18 553.01 404.33 556.19C404.536 556.294 404.699 556.466 404.793 556.677C404.886 556.888 404.904 557.125 404.843 557.348C404.782 557.57 404.645 557.764 404.457 557.898C404.269 558.031 404.04 558.096 403.81 558.08L375.32 558.76Z" stroke="black" stroke-miterlimit="10"/>
<path d="M288.24 489.08L291.42 480.89L303.52 481.04C310.22 481.04 313.94 483.72 319.09 486.91C319.297 487.014 319.462 487.187 319.555 487.4C319.649 487.612 319.666 487.85 319.603 488.073C319.541 488.297 319.402 488.491 319.212 488.624C319.022 488.756 318.791 488.819 318.56 488.8L288.24 489.08Z" stroke="black" stroke-miterlimit="10"/>
<path d="M315.42 335.46C294.35 340.91 264.11 343.24 239.65 335.86C219.41 329.74 211.49 310 207.74 286.86C216.24 292.78 241.14 288.53 279.64 287.7L365.23 288.7C367.969 288.734 370.659 289.431 373.068 290.734C375.478 292.036 377.536 293.904 379.064 296.177C380.593 298.45 381.547 301.06 381.844 303.783C382.141 306.506 381.772 309.261 380.77 311.81L306.86 481.15L291.38 480.89L335.99 327.39C331.49 330.3 324.25 333.15 315.38 335.46C294.31 340.91 264.07 343.24 239.61 335.86" fill="black"/>
<path d="M319.23 339.87H215.98C212.545 339.87 209.76 342.655 209.76 346.09V348.32C209.76 351.755 212.545 354.54 215.98 354.54H319.23C322.665 354.54 325.45 351.755 325.45 348.32V346.09C325.45 342.655 322.665 339.87 319.23 339.87Z" fill="white" stroke="black" stroke-width="1.29" stroke-miterlimit="10"/>
<path d="M228.24 354.76L196.68 558.63" stroke="black" stroke-width="1.29" stroke-miterlimit="10"/>
<path d="M310.35 354.76L341.91 558.63" stroke="black" stroke-width="1.29" stroke-miterlimit="10"/>
<path d="M269.3 355.09V558.63" stroke="black" stroke-width="1.29" stroke-miterlimit="10"/>
<path d="M208.83 488.54L329.47 489.31" stroke="black" stroke-width="1.29" stroke-miterlimit="10"/>
<path d="M290.38 279.14L289.5 288.17" stroke="black" stroke-width="1.56" stroke-miterlimit="10"/>
<path d="M68.77 492.25H136.11L129.41 558.63H73.93L68.77 492.25Z" stroke="black" stroke-miterlimit="10"/>
<path d="M25.6201 560.2C26.9901 560.2 73.74 544.2 73.74 544.2L74.74 558.2L25.6201 560.2Z" fill="black"/>
<path d="M72.5801 410.52L100.82 434.41C100.82 434.41 100.39 480.69 100.43 483.8" stroke="black" stroke-miterlimit="10"/>
<path d="M93.6899 428.38L101.26 377.87L144.14 352.52" stroke="black" stroke-miterlimit="10" stroke-linecap="round"/>
<path d="M118.91 367.44L83.3 299.39L46.74 279.41" stroke="black" stroke-miterlimit="10" stroke-linecap="round"/>
<path d="M86.5101 410.94C85.5101 412.15 82.8902 411.65 82.8902 411.65C82.8902 411.65 81.7901 409.18 82.7501 407.97C82.9263 407.669 83.1651 407.41 83.4503 407.21C83.7354 407.01 84.0603 406.873 84.4029 406.809C84.7455 406.746 85.0978 406.757 85.4359 406.841C85.7739 406.926 86.0898 407.082 86.3621 407.299C86.6345 407.516 86.857 407.79 87.0145 408.101C87.1719 408.411 87.2607 408.753 87.2747 409.101C87.2888 409.449 87.2277 409.796 87.0958 410.119C86.9639 410.441 86.7641 410.731 86.5101 410.97V410.94Z" fill="black"/>
<path d="M82.7003 416.35C81.7003 415.16 82.7003 412.66 82.7003 412.66C82.7003 412.66 85.3402 412.1 86.3302 413.29C86.5903 413.522 86.7973 413.807 86.9371 414.126C87.0769 414.445 87.1462 414.79 87.1402 415.138C87.1343 415.486 87.0535 415.829 86.9029 416.143C86.7524 416.457 86.5357 416.735 86.2679 416.958C86.0001 417.18 85.6874 417.343 85.3512 417.434C85.0149 417.524 84.6631 417.541 84.3197 417.484C83.9762 417.426 83.6493 417.295 83.3612 417.099C83.0731 416.904 82.8306 416.648 82.6503 416.35H82.7003Z" fill="black"/>
<path d="M78.5601 413.08C79.9701 413.72 82.1001 412.08 82.1001 412.08C82.1001 412.08 81.94 409.38 80.53 408.75C80.2384 408.566 79.9109 408.446 79.5691 408.398C79.2273 408.351 78.8794 408.377 78.5486 408.476C78.2178 408.574 77.9118 408.741 77.6511 408.968C77.3905 409.194 77.1812 409.473 77.0374 409.787C76.8935 410.1 76.8183 410.441 76.8169 410.786C76.8155 411.131 76.8882 411.472 77.0296 411.787C77.1709 412.102 77.3779 412.383 77.6367 412.611C77.8956 412.839 78.2001 413.009 78.53 413.11L78.5601 413.08Z" fill="black"/>
<path d="M68.1701 402.85C69.3201 403.85 68.6701 406.5 68.6701 406.5C68.6701 406.5 66.1401 407.5 64.9801 406.43C64.6822 406.241 64.4286 405.99 64.2374 405.694C64.0463 405.398 63.9219 405.063 63.8729 404.714C63.824 404.365 63.8515 404.009 63.9538 403.672C64.056 403.334 64.2306 403.023 64.4652 402.76C64.6998 402.497 64.9887 402.288 65.3122 402.147C65.6356 402.007 65.986 401.939 66.3385 401.947C66.691 401.956 67.0374 402.041 67.3537 402.197C67.6699 402.353 67.9485 402.576 68.1701 402.85Z" fill="black"/>
<path d="M73.3902 406.94C72.1502 407.86 69.7103 406.68 69.7103 406.68C69.7103 406.68 69.3001 404.01 70.5401 403.09C70.7866 402.846 71.083 402.657 71.4088 402.537C71.7345 402.418 72.0822 402.369 72.4283 402.396C72.7744 402.422 73.1106 402.523 73.4144 402.691C73.7182 402.859 73.9823 403.09 74.1888 403.369C74.3953 403.648 74.5395 403.968 74.6114 404.307C74.6833 404.647 74.6813 404.998 74.6055 405.337C74.5298 405.676 74.3819 405.994 74.1722 406.271C73.9625 406.547 73.6959 406.775 73.3902 406.94Z" fill="black"/>
<path d="M69.8602 410.94C70.5802 409.56 69.0301 407.34 69.0301 407.34C69.0301 407.34 66.3302 407.34 65.6102 408.72C65.3981 409.002 65.2499 409.326 65.1758 409.671C65.1018 410.016 65.1035 410.373 65.1812 410.717C65.2589 411.061 65.4105 411.384 65.6255 411.663C65.8406 411.943 66.114 412.172 66.4266 412.335C66.7391 412.499 67.0836 412.592 67.4358 412.609C67.7881 412.625 68.1396 412.565 68.4664 412.433C68.7931 412.3 69.087 412.098 69.3277 411.84C69.5684 411.582 69.7501 411.275 69.8602 410.94Z" fill="black"/>
<path d="M77.9302 427.27C78.8202 426 81.5 426.35 81.5 426.35C81.5 426.35 82.7401 428.75 81.8601 430.02C81.7073 430.337 81.4872 430.618 81.2153 430.842C80.9434 431.065 80.6261 431.228 80.2854 431.317C79.9446 431.406 79.5886 431.42 79.2419 431.357C78.8952 431.295 78.5661 431.158 78.2776 430.957C77.989 430.755 77.7477 430.492 77.5705 430.188C77.3934 429.884 77.2845 429.544 77.2514 429.194C77.2184 428.843 77.262 428.489 77.3791 428.157C77.4963 427.825 77.6844 427.522 77.9302 427.27Z" fill="black"/>
<path d="M81.4201 421.6C82.4801 422.73 81.59 425.29 81.59 425.29C81.59 425.29 78.9801 426.01 77.9201 424.88C77.6411 424.665 77.412 424.392 77.2489 424.08C77.0859 423.768 76.9925 423.424 76.9755 423.072C76.9585 422.72 77.0181 422.369 77.1503 422.043C77.2825 421.716 77.4841 421.422 77.7411 421.182C77.9981 420.941 78.3043 420.759 78.6386 420.648C78.9729 420.537 79.3272 420.5 79.6772 420.54C80.0271 420.58 80.3643 420.695 80.6652 420.878C80.9661 421.061 81.2237 421.308 81.4201 421.6Z" fill="black"/>
<path d="M85.74 424.62C84.3 424.07 82.27 425.86 82.27 425.86C82.27 425.86 82.58 428.55 84.03 429.1C84.3346 429.278 84.6742 429.387 85.0251 429.42C85.3761 429.453 85.7303 429.41 86.0627 429.293C86.3952 429.175 86.6982 428.987 86.9507 428.741C87.2031 428.495 87.3989 428.197 87.5247 427.868C87.6504 427.538 87.703 427.185 87.6787 426.834C87.6544 426.482 87.5538 426.14 87.384 425.831C87.2142 425.522 86.9792 425.254 86.6953 425.044C86.4114 424.835 86.0854 424.691 85.74 424.62Z" fill="black"/>
<path d="M107.33 415.57C105.79 415.39 104.82 412.87 104.82 412.87C104.82 412.87 106.35 410.63 107.88 410.81C108.233 410.791 108.586 410.85 108.914 410.982C109.242 411.113 109.537 411.315 109.779 411.573C110.021 411.83 110.204 412.138 110.315 412.473C110.426 412.809 110.463 413.165 110.422 413.516C110.382 413.867 110.265 414.205 110.081 414.506C109.896 414.808 109.648 415.065 109.353 415.261C109.059 415.456 108.725 415.585 108.376 415.639C108.026 415.692 107.67 415.669 107.33 415.57Z" fill="black"/>
<path d="M100.69 415.19C101.18 413.72 103.85 413.3 103.85 413.3C103.85 413.3 105.72 415.3 105.23 416.71C105.169 417.053 105.035 417.378 104.837 417.664C104.64 417.95 104.382 418.19 104.083 418.367C103.784 418.545 103.45 418.656 103.105 418.693C102.759 418.73 102.409 418.692 102.079 418.581C101.749 418.471 101.447 418.291 101.193 418.053C100.94 417.815 100.74 417.526 100.608 417.204C100.476 416.882 100.415 416.535 100.43 416.188C100.444 415.84 100.533 415.5 100.69 415.19Z" fill="black"/>
<path d="M101.29 409.94C101.49 411.48 104.03 412.41 104.03 412.41C104.03 412.41 106.24 410.86 106.03 409.32C106.035 408.973 105.965 408.629 105.825 408.311C105.685 407.994 105.479 407.71 105.219 407.479C104.96 407.249 104.655 407.076 104.323 406.974C103.991 406.872 103.641 406.842 103.297 406.887C102.953 406.932 102.623 407.051 102.328 407.235C102.034 407.418 101.783 407.663 101.591 407.953C101.4 408.242 101.273 408.57 101.22 408.913C101.166 409.255 101.186 409.606 101.28 409.94H101.29Z" fill="black"/>
<path d="M109.48 387.94C107.95 387.76 106.98 385.24 106.98 385.24C106.98 385.24 108.5 383 110.04 383.18C110.393 383.163 110.745 383.222 111.073 383.355C111.4 383.488 111.694 383.69 111.936 383.948C112.177 384.206 112.359 384.513 112.469 384.849C112.579 385.185 112.615 385.54 112.573 385.891C112.532 386.242 112.415 386.579 112.23 386.88C112.045 387.181 111.796 387.438 111.502 387.633C111.208 387.828 110.874 387.956 110.525 388.009C110.176 388.062 109.819 388.039 109.48 387.94Z" fill="black"/>
<path d="M102.86 387.58C103.35 386.12 106.02 385.69 106.02 385.69C106.02 385.69 107.9 387.69 107.4 389.11C107.337 389.451 107.202 389.775 107.003 390.059C106.804 390.343 106.546 390.581 106.247 390.757C105.948 390.933 105.615 391.042 105.27 391.078C104.925 391.114 104.576 391.075 104.247 390.964C103.919 390.853 103.618 390.673 103.365 390.436C103.112 390.199 102.912 389.91 102.781 389.589C102.649 389.268 102.588 388.922 102.602 388.576C102.616 388.229 102.704 387.89 102.86 387.58Z" fill="black"/>
<path d="M103.44 382.35C103.64 383.88 106.18 384.81 106.18 384.81C106.18 384.81 108.4 383.26 108.18 381.72C108.184 381.373 108.112 381.03 107.972 380.713C107.831 380.397 107.623 380.114 107.364 379.884C107.104 379.654 106.798 379.483 106.467 379.382C106.135 379.281 105.786 379.252 105.442 379.298C105.099 379.343 104.769 379.462 104.475 379.646C104.181 379.83 103.931 380.075 103.74 380.365C103.549 380.654 103.423 380.981 103.369 381.324C103.316 381.666 103.337 382.016 103.43 382.35H103.44Z" fill="black"/>
<path d="M110.96 435.94C109.52 436.51 107.48 434.74 107.48 434.74C107.48 434.74 107.77 432.05 109.21 431.48C109.512 431.309 109.847 431.204 110.192 431.174C110.538 431.143 110.885 431.188 111.212 431.303C111.539 431.419 111.838 431.604 112.087 431.845C112.336 432.086 112.531 432.378 112.657 432.701C112.784 433.023 112.84 433.37 112.821 433.716C112.802 434.062 112.709 434.401 112.548 434.708C112.387 435.015 112.162 435.284 111.888 435.497C111.614 435.709 111.298 435.86 110.96 435.94Z" fill="black"/>
<path d="M104.93 438.69C104.67 437.16 106.82 435.53 106.82 435.53C106.82 435.53 109.39 436.36 109.65 437.89C109.758 438.221 109.794 438.571 109.754 438.917C109.714 439.262 109.601 439.595 109.421 439.893C109.241 440.191 108.999 440.446 108.711 440.642C108.424 440.838 108.097 440.969 107.754 441.027C107.411 441.085 107.06 441.069 106.723 440.979C106.387 440.889 106.075 440.727 105.807 440.505C105.539 440.284 105.322 440.007 105.17 439.693C105.019 439.38 104.937 439.038 104.93 438.69Z" fill="black"/>
<path d="M102.99 433.79C103.89 435.05 106.57 434.67 106.57 434.67C106.57 434.67 107.79 432.26 106.89 431C106.734 430.684 106.512 430.405 106.238 430.183C105.963 429.962 105.644 429.802 105.302 429.717C104.96 429.631 104.604 429.62 104.257 429.686C103.911 429.752 103.583 429.892 103.296 430.097C103.009 430.302 102.771 430.567 102.597 430.874C102.423 431.18 102.317 431.521 102.288 431.873C102.259 432.224 102.307 432.577 102.428 432.909C102.549 433.24 102.741 433.54 102.99 433.79Z" fill="black"/>
<path d="M91.86 457.31C93.39 457.55 94.2699 460.11 94.2699 460.11C94.2699 460.11 92.6701 462.28 91.1401 462.05C90.7873 462.055 90.4378 461.983 90.1156 461.839C89.7935 461.695 89.5066 461.483 89.2748 461.217C89.043 460.951 88.8719 460.638 88.7734 460.299C88.6748 459.96 88.651 459.604 88.704 459.255C88.757 458.906 88.8853 458.573 89.08 458.279C89.2747 457.985 89.5311 457.737 89.8315 457.552C90.1318 457.366 90.4687 457.249 90.819 457.207C91.1693 457.166 91.5246 457.201 91.86 457.31Z" fill="black"/>
<path d="M98.4802 457.94C97.9302 459.39 95.25 459.72 95.25 459.72C95.25 459.72 93.45 457.72 93.99 456.26C94.0577 455.914 94.2002 455.586 94.4072 455.3C94.6143 455.015 94.8809 454.777 95.1889 454.605C95.4969 454.433 95.8388 454.33 96.1907 454.303C96.5425 454.276 96.896 454.327 97.2265 454.45C97.557 454.574 97.8566 454.768 98.1045 455.019C98.3524 455.27 98.5425 455.573 98.6618 455.905C98.7811 456.237 98.8268 456.591 98.7954 456.942C98.764 457.294 98.6565 457.634 98.4802 457.94Z" fill="black"/>
<path d="M97.6803 463.15C97.5403 461.61 95.0402 460.58 95.0402 460.58C95.0402 460.58 92.7703 462.05 92.9103 463.58C92.8924 463.927 92.9492 464.273 93.077 464.596C93.2048 464.918 93.4004 465.21 93.6508 465.45C93.9011 465.691 94.2001 465.874 94.5277 465.989C94.8553 466.104 95.2036 466.146 95.5492 466.115C95.8948 466.083 96.2296 465.977 96.5306 465.804C96.8317 465.631 97.0922 465.396 97.2943 465.114C97.4964 464.832 97.6354 464.51 97.702 464.169C97.7686 463.828 97.7613 463.477 97.6803 463.14V463.15Z" fill="black"/>
<path d="M91.11 386.66C92.29 387.66 91.7101 390.3 91.7101 390.3C91.7101 390.3 89.2099 391.3 88.0199 390.3C87.7179 390.119 87.4589 389.875 87.2606 389.584C87.0623 389.294 86.9296 388.963 86.8715 388.616C86.8134 388.269 86.8313 387.913 86.9242 387.574C87.0171 387.235 87.1826 386.919 87.4093 386.65C87.636 386.381 87.9183 386.164 88.237 386.015C88.5556 385.865 88.9031 385.787 89.255 385.785C89.607 385.783 89.955 385.858 90.2753 386.004C90.5956 386.15 90.8804 386.363 91.11 386.63V386.66Z" fill="black"/>
<path d="M96.4403 390.64C95.2203 391.64 92.7601 390.48 92.7601 390.48C92.7601 390.48 92.2701 387.82 93.4901 386.87C93.7295 386.618 94.0207 386.42 94.3436 386.29C94.6664 386.16 95.0133 386.101 95.3609 386.118C95.7085 386.134 96.0486 386.225 96.3577 386.385C96.6669 386.545 96.938 386.77 97.1524 387.044C97.3669 387.318 97.5196 387.635 97.6004 387.973C97.6812 388.312 97.688 388.664 97.6204 389.005C97.5528 389.346 97.4122 389.669 97.2086 389.951C97.0049 390.233 96.743 390.468 96.4403 390.64Z" fill="black"/>
<path d="M93.0501 394.68C93.7301 393.29 92.1301 391.11 92.1301 391.11C92.1301 391.11 89.42 391.19 88.74 392.58C88.5356 392.868 88.3964 393.196 88.3318 393.543C88.2672 393.89 88.279 394.247 88.3662 394.588C88.4534 394.93 88.6139 395.249 88.8367 395.523C89.0595 395.796 89.3394 396.018 89.6565 396.172C89.9736 396.327 90.3206 396.41 90.6733 396.417C91.0261 396.424 91.376 396.354 91.699 396.212C92.0219 396.07 92.3101 395.86 92.5435 395.595C92.7768 395.33 92.9496 395.018 93.0501 394.68Z" fill="black"/>
<path d="M40.2301 269.71C41.4201 270.71 40.83 273.35 40.83 273.35C40.83 273.35 38.3301 274.35 37.1501 273.35C36.8555 273.167 36.6037 272.923 36.4118 272.634C36.2198 272.345 36.0922 272.018 36.0375 271.676C35.9829 271.333 36.0026 270.983 36.0951 270.649C36.1876 270.315 36.3507 270.004 36.5736 269.739C36.7966 269.473 37.074 269.259 37.3871 269.109C37.7002 268.96 38.0416 268.88 38.3883 268.875C38.7351 268.869 39.0789 268.938 39.3966 269.077C39.7144 269.216 39.9988 269.422 40.2301 269.68V269.71Z" fill="black"/>
<path d="M45.5701 273.69C44.3501 274.69 41.8802 273.53 41.8802 273.53C41.8802 273.53 41.4002 270.87 42.6202 269.91C42.8591 269.65 43.1516 269.446 43.4774 269.311C43.8031 269.176 44.1543 269.114 44.5067 269.128C44.859 269.142 45.2042 269.233 45.5179 269.394C45.8316 269.555 46.1063 269.783 46.3233 270.061C46.5403 270.339 46.6942 270.661 46.7742 271.004C46.8543 271.348 46.8586 271.704 46.7869 272.05C46.7153 272.395 46.5693 272.721 46.3592 273.004C46.1491 273.287 45.8798 273.521 45.5701 273.69Z" fill="black"/>
<path d="M42.1703 277.73C42.8503 276.33 41.2501 274.16 41.2501 274.16C41.2501 274.16 38.5502 274.23 37.8702 275.62C37.6741 275.906 37.5418 276.232 37.4825 276.574C37.4232 276.916 37.4384 277.267 37.5267 277.603C37.615 277.938 37.7743 278.251 37.9942 278.52C38.2141 278.788 38.4892 279.007 38.8009 279.16C39.1125 279.312 39.4536 279.397 39.8006 279.406C40.1477 279.416 40.4927 279.35 40.8123 279.215C41.1319 279.079 41.4186 278.876 41.6529 278.62C41.8872 278.364 42.0637 278.06 42.1703 277.73Z" fill="black"/>
<path d="M47.8602 291.08C48.6802 289.77 51.3802 289.97 51.3802 289.97C51.3802 289.97 52.7503 292.3 51.9303 293.61C51.7963 293.937 51.5925 294.231 51.3333 294.471C51.0742 294.711 50.7657 294.892 50.4295 295C50.0934 295.109 49.7375 295.143 49.3868 295.1C49.0361 295.057 48.6988 294.939 48.3988 294.752C48.0987 294.566 47.8429 294.316 47.6493 294.02C47.4556 293.725 47.3287 293.391 47.2774 293.041C47.2262 292.691 47.2517 292.335 47.3524 291.996C47.453 291.657 47.6263 291.345 47.8602 291.08Z" fill="black"/>
<path d="M51.0201 285.24C52.1401 286.31 51.3903 288.9 51.3903 288.9C51.3903 288.9 48.8203 289.77 47.7003 288.69C47.4172 288.488 47.1808 288.228 47.0074 287.926C46.8341 287.625 46.7278 287.29 46.6957 286.943C46.6635 286.597 46.7063 286.248 46.8212 285.92C46.9361 285.592 47.1204 285.292 47.3614 285.042C47.6025 284.791 47.8949 284.596 48.2184 284.468C48.5419 284.341 48.889 284.285 49.2362 284.303C49.5834 284.322 49.9225 284.416 50.2303 284.577C50.5382 284.739 50.8075 284.965 51.0201 285.24Z" fill="black"/>
<path d="M55.5 288.02C54.03 287.54 52.1001 289.44 52.1001 289.44C52.1001 289.44 52.56 292.11 54.03 292.58C54.3417 292.732 54.6824 292.815 55.0291 292.824C55.3757 292.833 55.7205 292.768 56.0396 292.632C56.3586 292.496 56.6448 292.293 56.8787 292.037C57.1125 291.781 57.2886 291.478 57.395 291.148C57.5014 290.818 57.5356 290.469 57.4954 290.124C57.4551 289.78 57.3413 289.448 57.1616 289.151C56.9819 288.855 56.7405 288.6 56.4539 288.405C56.1672 288.21 55.8418 288.078 55.5 288.02Z" fill="black"/>
<path d="M72.9503 283.62C72.2403 284.99 69.5301 285 69.5301 285C69.5301 285 67.9803 282.79 68.6903 281.41C68.8009 281.076 68.9825 280.771 69.2228 280.514C69.463 280.257 69.7562 280.056 70.0819 279.923C70.4076 279.791 70.7578 279.731 71.109 279.747C71.4602 279.763 71.8038 279.856 72.1158 280.018C72.4279 280.179 72.7011 280.407 72.9166 280.685C73.1321 280.963 73.2848 281.284 73.3641 281.626C73.4435 281.969 73.4475 282.324 73.3761 282.669C73.3046 283.013 73.1594 283.337 72.9503 283.62Z" fill="black"/>
<path d="M70.2401 289.7C69.0401 288.7 69.5902 286.07 69.5902 286.07C69.5902 286.07 72.0801 285.01 73.2701 285.99C73.5773 286.162 73.8434 286.399 74.0494 286.685C74.2554 286.971 74.3965 287.298 74.463 287.644C74.5295 287.99 74.5197 288.346 74.4342 288.688C74.3487 289.029 74.1896 289.348 73.9681 289.622C73.7467 289.896 73.4682 290.118 73.152 290.273C72.8357 290.428 72.4895 290.513 72.1373 290.52C71.7852 290.528 71.4356 290.458 71.1132 290.316C70.7907 290.175 70.5029 289.964 70.2701 289.7H70.2401Z" fill="black"/>
<path d="M65.5601 287.28C67.0601 287.63 68.8401 285.59 68.8401 285.59C68.8401 285.59 68.1702 282.97 66.6602 282.59C66.3349 282.456 65.9844 282.394 65.6329 282.408C65.2813 282.423 64.9369 282.513 64.6238 282.674C64.3107 282.835 64.0363 283.061 63.8194 283.338C63.6025 283.616 63.4484 283.937 63.3677 284.279C63.287 284.622 63.2817 284.978 63.3521 285.322C63.4225 285.667 63.5669 285.993 63.7754 286.276C63.9839 286.559 64.2515 286.794 64.5596 286.964C64.8678 287.134 65.2091 287.235 65.5601 287.26V287.28Z" fill="black"/>
<path d="M92.74 296.79C91.53 297.79 89.0601 296.67 89.0601 296.67C89.0601 296.67 88.54 294.01 89.75 293.05C89.9876 292.799 90.2764 292.601 90.5967 292.471C90.917 292.341 91.2615 292.281 91.607 292.295C91.9524 292.309 92.2908 292.397 92.5994 292.553C92.908 292.709 93.1797 292.929 93.396 293.199C93.6124 293.468 93.7683 293.781 93.8536 294.116C93.9388 294.451 93.9514 294.801 93.8902 295.141C93.829 295.482 93.6955 295.805 93.4988 296.089C93.3022 296.374 93.0468 296.613 92.75 296.79H92.74Z" fill="black"/>
<path d="M87.8 301.24C87.1 299.86 88.6801 297.66 88.6801 297.66C88.6801 297.66 91.38 297.66 92.08 299.09C92.2789 299.375 92.4142 299.699 92.4767 300.04C92.5393 300.382 92.5275 300.733 92.4423 301.069C92.3572 301.406 92.2007 301.72 91.9833 301.991C91.766 302.262 91.4928 302.483 91.1826 302.639C90.8723 302.794 90.5322 302.882 90.1852 302.894C89.8383 302.907 89.4924 302.845 89.1716 302.712C88.8507 302.58 88.5623 302.38 88.3256 302.125C88.089 301.871 87.9096 301.569 87.8 301.24Z" fill="black"/>
<path d="M84.4999 297.13C85.7299 298.07 88.1801 296.92 88.1801 296.92C88.1801 296.92 88.6301 294.25 87.4001 293.32C87.1571 293.071 86.8634 292.878 86.539 292.753C86.2146 292.628 85.867 292.574 85.52 292.596C85.1729 292.617 84.8346 292.713 84.528 292.877C84.2214 293.041 83.9537 293.269 83.7431 293.545C83.5325 293.822 83.3841 294.141 83.3078 294.48C83.2315 294.819 83.2291 295.171 83.301 295.511C83.3728 295.851 83.5172 296.172 83.7241 296.451C83.931 296.731 84.1955 296.962 84.4999 297.13Z" fill="black"/>
<path d="M108.32 327.04C107.11 328.04 104.63 326.92 104.63 326.92C104.63 326.92 104.12 324.26 105.32 323.3C105.555 323.037 105.845 322.829 106.169 322.689C106.493 322.55 106.844 322.483 107.196 322.492C107.549 322.502 107.895 322.588 108.211 322.745C108.527 322.902 108.805 323.126 109.026 323.401C109.246 323.676 109.405 323.996 109.489 324.338C109.574 324.681 109.583 325.038 109.516 325.384C109.449 325.73 109.307 326.058 109.1 326.344C108.894 326.63 108.628 326.867 108.32 327.04Z" fill="black"/>
<path d="M103.38 331.49C102.68 330.11 104.25 327.91 104.25 327.91C104.25 327.91 106.96 327.91 107.66 329.34C107.859 329.625 107.994 329.949 108.057 330.29C108.12 330.632 108.108 330.983 108.023 331.319C107.937 331.656 107.781 331.97 107.564 332.241C107.346 332.512 107.073 332.733 106.763 332.889C106.453 333.044 106.112 333.132 105.765 333.144C105.418 333.157 105.073 333.095 104.752 332.962C104.431 332.83 104.142 332.63 103.906 332.375C103.669 332.121 103.49 331.819 103.38 331.49Z" fill="black"/>
<path d="M100.08 327.38C101.31 328.32 103.76 327.17 103.76 327.17C103.76 327.17 104.21 324.5 102.98 323.57C102.737 323.321 102.443 323.128 102.119 323.003C101.795 322.878 101.447 322.824 101.1 322.846C100.753 322.867 100.415 322.963 100.108 323.127C99.8015 323.291 99.5337 323.519 99.3232 323.795C99.1126 324.072 98.9642 324.391 98.8879 324.73C98.8116 325.069 98.8092 325.421 98.881 325.761C98.9529 326.101 99.0972 326.422 99.3041 326.701C99.511 326.981 99.7756 327.212 100.08 327.38Z" fill="black"/>
<path d="M70.1502 304.02C71.1502 302.83 73.7901 303.41 73.7901 303.41C73.7901 303.41 74.7901 305.9 73.7901 307.09C73.612 307.395 73.3696 307.658 73.0796 307.859C72.7897 308.061 72.4591 308.197 72.1111 308.259C71.7632 308.32 71.4061 308.304 71.0648 308.213C70.7234 308.122 70.4061 307.957 70.1348 307.731C69.8635 307.505 69.6448 307.222 69.494 306.902C69.3431 306.583 69.2639 306.234 69.2615 305.881C69.2592 305.528 69.334 305.178 69.4805 304.857C69.6271 304.535 69.8419 304.25 70.1102 304.02H70.1502Z" fill="black"/>
<path d="M74.1101 298.67C75.1101 299.89 73.9602 302.36 73.9602 302.36C73.9602 302.36 71.3001 302.85 70.3501 301.64C70.0961 301.401 69.8963 301.111 69.7644 300.789C69.6325 300.466 69.5717 300.119 69.5857 299.771C69.5997 299.423 69.6883 299.082 69.8457 298.771C70.0032 298.46 70.2257 298.187 70.4981 297.969C70.7704 297.752 71.0863 297.596 71.4243 297.511C71.7624 297.427 72.1147 297.416 72.4573 297.48C72.7999 297.543 73.1248 297.68 73.4099 297.88C73.6951 298.08 73.9339 298.339 74.1101 298.64V298.67Z" fill="black"/>
<path d="M78.1602 302.05C76.7602 301.37 74.5901 302.99 74.5901 302.99C74.5901 302.99 74.6801 305.69 76.0701 306.36C76.3575 306.555 76.6833 306.685 77.0256 306.743C77.3679 306.8 77.7187 306.784 78.054 306.694C78.3892 306.604 78.7012 306.443 78.9688 306.222C79.2363 306.001 79.4533 305.725 79.6047 305.412C79.7562 305.1 79.8387 304.759 79.8467 304.412C79.8546 304.065 79.7877 303.72 79.6506 303.401C79.5136 303.082 79.3097 302.796 79.0525 302.563C78.7953 302.33 78.491 302.155 78.1602 302.05Z" fill="black"/>
<path d="M96.8602 350.11C97.8602 348.93 100.5 349.5 100.5 349.5C100.5 349.5 101.5 352 100.5 353.19C100.32 353.492 100.076 353.751 99.7862 353.95C99.4961 354.148 99.1664 354.282 98.8197 354.34C98.473 354.399 98.1178 354.382 97.7784 354.29C97.439 354.198 97.1235 354.034 96.8539 353.808C96.5842 353.582 96.3669 353.301 96.2167 352.983C96.0664 352.665 95.9869 352.318 95.9837 351.967C95.9805 351.615 96.0537 351.267 96.1981 350.946C96.3425 350.626 96.5547 350.34 96.8202 350.11H96.8602Z" fill="black"/>
<path d="M100.86 344.76C101.86 345.98 100.71 348.45 100.71 348.45C100.71 348.45 98.0501 348.95 97.1001 347.73C96.8461 347.491 96.6463 347.201 96.5144 346.879C96.3825 346.556 96.3217 346.209 96.3357 345.861C96.3497 345.513 96.4383 345.171 96.5957 344.861C96.7532 344.55 96.9757 344.276 97.2481 344.059C97.5204 343.842 97.8363 343.686 98.1743 343.601C98.5124 343.517 98.8647 343.506 99.2073 343.569C99.5499 343.633 99.8748 343.77 100.16 343.97C100.445 344.17 100.684 344.429 100.86 344.73V344.76Z" fill="black"/>
<path d="M104.86 348.14C103.47 347.47 101.29 349.08 101.29 349.08C101.29 349.08 101.38 351.78 102.78 352.45C103.068 352.647 103.394 352.779 103.738 352.838C104.081 352.896 104.433 352.88 104.77 352.79C105.106 352.701 105.42 352.539 105.688 352.317C105.956 352.095 106.174 351.818 106.325 351.504C106.477 351.19 106.559 350.848 106.565 350.499C106.572 350.151 106.504 349.805 106.365 349.486C106.225 349.167 106.019 348.881 105.759 348.649C105.5 348.416 105.193 348.243 104.86 348.14Z" fill="black"/>
<path d="M83.1502 318.39C84.6602 318.05 86.4202 320.1 86.4202 320.1C86.4202 320.1 85.7303 322.72 84.2203 323.1C83.8937 323.236 83.5414 323.299 83.188 323.284C82.8347 323.27 82.4887 323.178 82.1744 323.016C81.86 322.854 81.5848 322.626 81.368 322.346C81.1511 322.067 80.9977 321.743 80.9187 321.399C80.8398 321.054 80.8371 320.696 80.9107 320.35C80.9843 320.004 81.1325 319.679 81.345 319.396C81.5575 319.113 81.8291 318.88 82.1409 318.714C82.4527 318.547 82.7971 318.45 83.1502 318.43V318.39Z" fill="black"/>
<path d="M89.54 316.53C89.54 318.07 87.1902 319.37 87.1902 319.37C87.1902 319.37 84.77 318.16 84.75 316.61C84.6949 316.268 84.714 315.917 84.8061 315.583C84.8983 315.248 85.0614 314.937 85.2842 314.671C85.5069 314.406 85.7843 314.191 86.0974 314.041C86.4105 313.892 86.752 313.812 87.0989 313.806C87.4457 313.8 87.79 313.869 88.1079 314.008C88.4258 314.146 88.7101 314.352 88.9416 314.61C89.1732 314.869 89.3464 315.174 89.4497 315.505C89.553 315.836 89.5837 316.186 89.54 316.53Z" fill="black"/>
<path d="M90.7202 321.66C90.0202 320.29 87.3101 320.25 87.3101 320.25C87.3101 320.25 85.7502 322.46 86.4502 323.84C86.557 324.176 86.7357 324.485 86.9739 324.745C87.2121 325.006 87.504 325.211 87.8296 325.347C88.1551 325.483 88.5063 325.546 88.8589 325.533C89.2114 325.519 89.5569 325.429 89.8711 325.269C90.1853 325.108 90.4608 324.882 90.6785 324.604C90.8961 324.326 91.0508 324.004 91.1316 323.661C91.2124 323.318 91.2175 322.961 91.1465 322.615C91.0754 322.27 90.93 321.944 90.7202 321.66Z" fill="black"/>
<path d="M152.27 351.35C150.83 351.93 148.77 350.18 148.77 350.18C148.77 350.18 149.04 347.49 150.48 346.91C150.78 346.734 151.114 346.624 151.461 346.589C151.807 346.554 152.156 346.594 152.486 346.706C152.815 346.818 153.116 347 153.369 347.239C153.622 347.478 153.82 347.769 153.95 348.092C154.08 348.414 154.139 348.761 154.123 349.109C154.107 349.457 154.016 349.796 153.856 350.106C153.697 350.415 153.473 350.686 153.199 350.901C152.925 351.116 152.608 351.269 152.27 351.35Z" fill="black"/>
<path d="M146.26 354.2C145.99 352.68 148.12 351.02 148.12 351.02C148.12 351.02 150.7 351.84 150.97 353.36C151.083 353.69 151.122 354.041 151.087 354.388C151.051 354.734 150.941 355.07 150.764 355.37C150.586 355.67 150.346 355.929 150.06 356.128C149.773 356.327 149.447 356.462 149.104 356.523C148.761 356.584 148.408 356.57 148.071 356.483C147.733 356.395 147.419 356.235 147.149 356.015C146.878 355.794 146.659 355.518 146.506 355.205C146.352 354.891 146.268 354.549 146.26 354.2Z" fill="black"/>
<path d="M144.28 349.32C145.19 350.57 147.87 350.17 147.87 350.17C147.87 350.17 149.06 347.75 148.15 346.5C147.988 346.192 147.762 345.923 147.487 345.71C147.212 345.498 146.895 345.347 146.556 345.268C146.218 345.19 145.866 345.185 145.525 345.254C145.185 345.323 144.863 345.465 144.582 345.669C144.301 345.874 144.068 346.137 143.898 346.44C143.727 346.743 143.624 347.079 143.596 347.426C143.567 347.772 143.613 348.12 143.731 348.447C143.849 348.774 144.036 349.072 144.28 349.32Z" fill="black"/>
<path d="M138.86 369.01C137.37 368.59 136.8 365.95 136.8 365.95C136.8 365.95 138.66 363.95 140.15 364.39C140.5 364.429 140.837 364.543 141.139 364.726C141.44 364.908 141.698 365.153 141.895 365.445C142.092 365.737 142.224 366.068 142.28 366.416C142.337 366.764 142.317 367.119 142.222 367.459C142.127 367.798 141.96 368.112 141.732 368.381C141.503 368.649 141.219 368.864 140.9 369.011C140.58 369.159 140.232 369.235 139.88 369.235C139.527 369.235 139.18 369.158 138.86 369.01Z" fill="black"/>
<path d="M132.4 367.6C133.11 366.23 135.81 366.22 135.81 366.22C135.81 366.22 137.36 368.44 136.65 369.81C136.536 370.138 136.352 370.437 136.112 370.687C135.871 370.938 135.58 371.134 135.258 371.261C134.935 371.389 134.589 371.447 134.242 371.429C133.895 371.411 133.557 371.319 133.249 371.159C132.941 370.999 132.671 370.774 132.458 370.501C132.244 370.227 132.092 369.911 132.011 369.573C131.931 369.236 131.924 368.885 131.991 368.544C132.058 368.204 132.197 367.882 132.4 367.6Z" fill="black"/>
<path d="M133.86 362.52C133.86 364.07 136.18 365.39 136.18 365.39C136.18 365.39 138.61 364.2 138.65 362.65C138.719 362.303 138.711 361.946 138.627 361.602C138.543 361.259 138.385 360.938 138.164 360.662C137.943 360.386 137.665 360.161 137.349 360.004C137.032 359.846 136.685 359.76 136.332 359.75C135.979 359.741 135.627 359.808 135.303 359.949C134.978 360.089 134.688 360.298 134.453 360.561C134.218 360.825 134.043 361.137 133.94 361.475C133.838 361.814 133.81 362.17 133.86 362.52Z" fill="black"/>
<path d="M128.33 351.94C128.23 353.48 125.77 354.59 125.77 354.59C125.77 354.59 123.45 353.2 123.54 351.65C123.505 351.3 123.547 350.947 123.663 350.615C123.778 350.282 123.964 349.979 124.208 349.726C124.452 349.473 124.748 349.275 125.075 349.147C125.403 349.02 125.754 348.964 126.105 348.986C126.456 349.007 126.798 349.104 127.108 349.27C127.418 349.437 127.688 349.668 127.899 349.949C128.111 350.23 128.259 350.554 128.333 350.897C128.408 351.241 128.407 351.597 128.33 351.94Z" fill="black"/>
<path d="M128.32 358.54C126.83 358.13 126.25 355.54 126.25 355.54C126.25 355.54 128.1 353.54 129.59 353.97C129.942 354.005 130.282 354.117 130.586 354.297C130.89 354.477 131.151 354.722 131.351 355.013C131.551 355.305 131.685 355.636 131.744 355.985C131.802 356.334 131.784 356.691 131.69 357.032C131.597 357.373 131.43 357.689 131.201 357.959C130.972 358.229 130.688 358.445 130.367 358.594C130.046 358.742 129.697 358.818 129.343 358.818C128.99 358.817 128.64 358.739 128.32 358.59V358.54Z" fill="black"/>
<path d="M123.06 358.23C124.58 357.95 125.37 355.36 125.37 355.36C125.37 355.36 123.69 353.24 122.17 353.52C121.817 353.527 121.47 353.612 121.153 353.767C120.836 353.922 120.556 354.144 120.334 354.419C120.111 354.693 119.951 355.012 119.865 355.354C119.778 355.697 119.768 356.054 119.833 356.401C119.899 356.748 120.039 357.076 120.245 357.363C120.45 357.65 120.715 357.889 121.023 358.063C121.33 358.237 121.671 358.343 122.023 358.371C122.375 358.4 122.729 358.352 123.06 358.23Z" fill="black"/>
<path d="M63.3801 483.8H141.32C141.589 483.8 141.855 483.861 142.097 483.976C142.34 484.092 142.554 484.26 142.723 484.469C142.893 484.678 143.014 484.922 143.077 485.183C143.141 485.445 143.145 485.717 143.09 485.98L142.04 490.83C141.951 491.231 141.729 491.591 141.409 491.849C141.089 492.107 140.691 492.248 140.28 492.25H65.2102C64.8434 492.248 64.4856 492.135 64.1841 491.927C63.8825 491.718 63.651 491.423 63.52 491.08L61.6902 486.24C61.5887 485.967 61.5547 485.673 61.591 485.384C61.6274 485.095 61.733 484.819 61.8989 484.579C62.0648 484.34 62.2861 484.144 62.5439 484.008C62.8018 483.873 63.0887 483.801 63.3801 483.8Z" stroke="black" stroke-miterlimit="10"/>
<path d="M69.5601 499.87C70.4301 499.87 136.12 492.25 136.12 492.25H68.77L69.5601 499.87Z" fill="black"/>
<path d="M641.2 558.63V81.9399C641.201 71.2534 639.098 60.6714 635.009 50.798C630.92 40.9246 624.927 31.9532 617.371 24.3962C609.815 16.8393 600.844 10.8446 590.971 6.75476C581.098 2.66491 570.516 0.559936 559.83 0.559937H471.28" stroke="black" stroke-miterlimit="10"/>
<path d="M384.79 24.33H571.04L507.37 4.73002C486.205 -1.78849 463.537 -1.57185 442.5 5.35002L384.79 24.33Z" fill="black"/>
<path d="M98.2202 397.58C242.76 434.18 456.78 576.65 689.06 340.23" stroke="black" stroke-miterlimit="10"/>
<path d="M490.59 189.9C514.614 189.9 534.09 170.424 534.09 146.4C534.09 122.376 514.614 102.9 490.59 102.9C466.566 102.9 447.09 122.376 447.09 146.4C447.09 170.424 466.566 189.9 490.59 189.9Z" stroke="black" stroke-miterlimit="10"/>
<path d="M490.59 116.99V146.4H517.86" stroke="black" stroke-miterlimit="10"/>
</g>
<defs>
<clipPath id="clip0_2:726">
<rect width="697.95" height="560.21" fill="white"/>
</clipPath>
</defs>
</svg>
